<svg id="Layer_1" data-name="Layer 1" xmlns="http://www.w3.org/2000/svg" xmlns:xlink="http://www.w3.org/1999/xlink" viewBox="0 0 286.64 165.07"><defs><style>.cls-1{fill:none;}.cls-2{clip-path:url(#clip-path);}</style><clipPath id="clip-path" transform="translate(-231.39 -584.18)"><path class="cls-1" d="M511.59,666.72h0c-21.06-45.86-76.07-76.87-137.51-76.77-61.28.09-116,31.12-136.93,76.77h0c21.06,45.87,76.06,76.87,137.5,76.78s116-31.12,136.94-76.78Z"/></clipPath></defs><path d="M516.83,664.31c-22-47.94-79.26-80.13-142.46-80.13h-.29c-63.07.12-120.19,32.3-142.17,80.13a5.87,5.87,0,0,0,0,4.82c22,48,79.25,80.12,142.46,80.12h.29c63.07-.1,120.19-32.29,142.17-80.12A5.87,5.87,0,0,0,516.83,664.31ZM374.64,737.73h-.27c-57.72,0-109.87-28.41-130.85-71,20.93-42.49,73-70.92,130.58-71h.27c57.71,0,109.86,28.42,130.84,71C484.29,709.23,432.22,737.65,374.64,737.73Z" transform="translate(-231.39 -584.18)"/><path d="M416.31,665.62a40.67,40.67,0,1,1-21.37-35.82,15.75,15.75,0,1,0,19.18,22.69A40.1,40.1,0,0,1,416.31,665.62Z" transform="translate(-231.39 -584.18)"/><path d="M375.62,605.12a60.5,60.5,0,1,0,60.48,60.5A60.57,60.57,0,0,0,375.62,605.12Zm0,109.48a49,49,0,1,1,49-49A49,49,0,0,1,375.62,714.6Z" transform="translate(-231.39 -584.18)"/><g class="cls-2"><path d="M272.35,733.26a5.75,5.75,0,0,1-4.84-8.87l16.05-25-3.43-18.88a5.73,5.73,0,0,1,1.59-5.1l9.6-9.6a5.76,5.76,0,0,1,8.14,8.14L292,681.46l3.3,18.14a5.78,5.78,0,0,1-.83,4.15L277.2,730.62A5.76,5.76,0,0,1,272.35,733.26Z" transform="translate(-231.39 -584.18)"/><path d="M289.62,706.39a5.76,5.76,0,0,1-.63-11.48L306.27,693a5.76,5.76,0,1,1,1.27,11.44l-17.27,1.92A4.73,4.73,0,0,1,289.62,706.39Z" transform="translate(-231.39 -584.18)"/><path d="M512.27,717.91a5.74,5.74,0,0,1-3-.84L465.14,690.2a5.76,5.76,0,0,1-2.77-4.92V669.83l-13.85-6.16a5.8,5.8,0,0,1-2.6-2.3l-5.76-9.6a5.76,5.76,0,1,1,9.88-5.92l4.82,8,15.61,6.94a5.77,5.77,0,0,1,3.42,5.26v16l41.38,25.19a5.76,5.76,0,0,1-3,10.68Z" transform="translate(-231.39 -584.18)"/><path d="M468.13,671.84a5.67,5.67,0,0,1-2.85-.76,5.76,5.76,0,0,1-2.15-7.85l7.68-13.44a5.76,5.76,0,0,1,10,5.71l-7.68,13.44A5.74,5.74,0,0,1,468.13,671.84Z" transform="translate(-231.39 -584.18)"/><path d="M468.14,691a5.59,5.59,0,0,1-1.14-.12l-19.19-3.84a5.76,5.76,0,1,1,2.26-11.29l19.19,3.84A5.76,5.76,0,0,1,468.14,691Z" transform="translate(-231.39 -584.18)"/><path d="M297.31,654.57a5.76,5.76,0,0,1-4.94-2.8l-5.76-9.6a5.79,5.79,0,0,1-.82-3V625.78l-16.12-21.5a5.76,5.76,0,1,1,9.21-6.91l17.28,23a5.82,5.82,0,0,1,1.15,3.46v13.76l4.94,8.23a5.76,5.76,0,0,1-4.94,8.72Z" transform="translate(-231.39 -584.18)"/><path d="M308.83,633.45a6.13,6.13,0,0,1-1.26-.13l-17.27-3.84a5.76,5.76,0,0,1,2.5-11.25l17.27,3.84a5.76,5.76,0,0,1-1.24,11.38Z" transform="translate(-231.39 -584.18)"/><path d="M268.51,677.6a5.76,5.76,0,0,1-5.53-4.18l-3.24-11.35L234.69,646a5.76,5.76,0,1,1,6.23-9.68l26.87,17.27a5.81,5.81,0,0,1,2.43,3.26l3.83,13.44a5.75,5.75,0,0,1-5.54,7.34Z" transform="translate(-231.39 -584.18)"/><path d="M264.67,664.16a5.76,5.76,0,0,1-.71-11.47l15.36-1.92a5.76,5.76,0,0,1,1.43,11.43l-15.36,1.92A5.79,5.79,0,0,1,264.67,664.16Z" transform="translate(-231.39 -584.18)"/><path d="M458.54,740.94a5.75,5.75,0,0,1-5-2.86L441,716.53l-10-5a5.76,5.76,0,1,1,5.15-10.3L447.68,707a5.7,5.7,0,0,1,2.39,2.25l13.44,23a5.76,5.76,0,0,1-2.07,7.87A5.68,5.68,0,0,1,458.54,740.94Z" transform="translate(-231.39 -584.18)"/><path d="M441.26,639.21a5.74,5.74,0,0,1-5.46-7.58l3.84-11.51a5.78,5.78,0,0,1,1.57-2.43l23-21.11a5.76,5.76,0,1,1,7.78,8.49l-21.93,20.1-3.37,10.1A5.75,5.75,0,0,1,441.26,639.21Z" transform="translate(-231.39 -584.18)"/><path d="M445.1,627.7a5.6,5.6,0,0,1-1.65-.25l-19.2-5.76a5.76,5.76,0,1,1,3.31-11l19.19,5.76a5.76,5.76,0,0,1-1.65,11.28Z" transform="translate(-231.39 -584.18)"/></g></svg>