<svg id="Layer_1" data-name="Layer 1" xmlns="http://www.w3.org/2000/svg" viewBox="0 0 287.1 206.58"><path d="M309.07,724.55l-8.72,8.7c3.75,1.73,7.6,3.32,11.52,4.78l9-9C316.84,727.68,312.9,726.21,309.07,724.55Zm208.42-60.24c-11.69-25.46-33.3-46.47-60.46-60.6l-8.54,8.56c25.55,12.48,46.05,31.38,57.39,54.43-20.92,42.52-73,70.95-130.58,71H375a172.3,172.3,0,0,1-45.84-6.16L320,740.79A182.18,182.18,0,0,0,375,749.24h.28c63.08-.1,120.2-32.29,142.17-80.12l1.1-2.42ZM375,584.17h-.29c-63.07.12-120.19,32.3-142.17,80.14l-1.1,2.39,1.1,2.42c11.69,25.45,33.32,46.47,60.48,60.58l8.52-8.54c-25.55-12.5-46-31.4-57.39-54.46,20.92-42.49,73-70.92,130.58-71H375a172.32,172.32,0,0,1,45.85,6.16l9.23-9.23A182.16,182.16,0,0,0,375,584.17ZM438.2,595.4l-9,9q6,2,11.8,4.47l8.7-8.69C446,598.43,442.12,596.84,438.2,595.4Z" transform="translate(-231.48 -563.42)"/><path d="M413.52,620.08l-8.18,8.18a49,49,0,0,1,8.14,8.14l8.18-8.18A59.63,59.63,0,0,0,413.52,620.08ZM336.59,697l-8.18,8.18a62.45,62.45,0,0,0,8.12,8.14l8.2-8.18A50.54,50.54,0,0,1,336.59,697Zm89.64-62.51-8.39,8.4a49,49,0,0,1-66.6,66.59l-8.39,8.4a60.47,60.47,0,0,0,83.38-83.39ZM375,606.22a60.46,60.46,0,0,0-51.19,92.69l8.38-8.4a49,49,0,0,1,66.61-66.59l8.38-8.41A60.22,60.22,0,0,0,375,606.22Zm38.48,13.86-8.18,8.18a49,49,0,0,1,8.14,8.14l8.18-8.18A59.63,59.63,0,0,0,413.52,620.08Z" transform="translate(-231.48 -563.42)"/><path d="M476.63,573.25l-26.91,26.91-8.7,8.69-19.36,19.37-8.18,8.18-68.75,68.77-8.2,8.18L320.87,729l-9,9-30.29,30.29a5.75,5.75,0,0,1-8.14,0,5.73,5.73,0,0,1,0-8.14l26.91-26.93,8.72-8.7L336.59,697l68.75-68.77,63.15-63.15a5.75,5.75,0,0,1,4.07-1.69,5.76,5.76,0,0,1,4.07,9.83Z" transform="translate(-231.48 -563.42)"/></svg>